# xmcd
#
# Track frame offsets:
#	150
#	18350
#	37170
#	52545
#	70550
#	86695
#	106452
#	123477
#	143172
#	162890
#	181550
#	203245
#	221107
#
# Disc length: 3170 seconds
#
# Revision: 1
# Processed by: cddbd v1.5.1PL0 Copyright (c) Steve Scherf et al.
# Submitted via: CDex 1.50Beta5
#
DISCID=ac0c600d
DTITLE=アイロウ&タカ - 僕
DYEAR=1900
DGENRE=
TTITLE0=君へ
TTITLE1=Good-bye臆病者
TTITLE2=僕だけの歌
TTITLE3=引越し
TTITLE4=夏が染まる前に
TTITLE5=理由
TTITLE6=いつのまにか
TTITLE7=どこ見て
TTITLE8=手強い自分
TTITLE9=永遠のテーマ
TTITLE10=ONE TAKE
TTITLE11=君へ
TTITLE12=君へ
EXTD=
EXTT0=
EXTT1=
EXTT2=
EXTT3=
EXTT4=
EXTT5=
EXTT6=
EXTT7=
EXTT8=
EXTT9=
EXTT10=
EXTT11=
EXTT12=
PLAYORDER=
